# xmcd
#
# Track frame offsets: 
#        150
#        12394
#        22103
#        34908
#        45291
#        55704
#        76990
#        89089
#        101739
#        114252
#        131081
#        149468
#        163533
#
# Disc length: 2324 seconds
#
# Revision: 0
# Processed by: cddbd v1.5.1PL2 Copyright (c) Steve Scherf et al.
# Submitted via: ExactAudioCopy v0.95a5
#
DISCID=a909120d
DTITLE=Steel Magnolia - Live at Sid Luck's Pottery
DYEAR=1900
DGENRE=Bluegrass
TTITLE0=Foggy Mountain Breakdown
TTITLE1=Wild Side of Life
TTITLE2=Drivin' Nails in my Coffin
TTITLE3=I'm On My Way Back To The Old Home
TTITLE4=Fox in the Henhouse
TTITLE5=Golden Ring
TTITLE6=Fireball Mail
TTITLE7=Another Night
TTITLE8=Dim Lights
TTITLE9=White Dove
TTITLE10=Something Blue
TTITLE11=Catfish John
TTITLE12=Y'all Come
EXTD=
EXTT0=
EXTT1=
EXTT2=
EXTT3=
EXTT4=
EXTT5=
EXTT6=
EXTT7=
EXTT8=
EXTT9=
EXTT10=
EXTT11=
EXTT12=
PLAYORDER=
